<?xml version="1.0" encoding="utf-8"?>
<!-- Polished smooth, flowing circular volcano badge -->
<svg xmlns="http://www.w3.org/2000/svg" viewBox="0 0 64 64" width="512" height="512" role="img" aria-label="Volcano icon">
  <defs>
    <radialGradient id="bgRad" cx="30%" cy="25%" r="85%">
      <stop offset="0%" stop-color="#142834"/>
      <stop offset="100%" stop-color="#07101a"/>
    </radialGradient>

    <linearGradient id="lava" x1="0" y1="0" x2="1" y2="1">
      <stop offset="0%" stop-color="#fff1b8"/>
      <stop offset="40%" stop-color="#ffd166"/>
      <stop offset="70%" stop-color="#ff7a3c"/>
      <stop offset="100%" stop-color="#d7263d"/>
    </linearGradient>

    <filter id="softShadow" x="-50%" y="-50%" width="200%" height="200%">
      <feDropShadow dx="0" dy="3" stdDeviation="4" flood-color="#000" flood-opacity="0.35"/>
    </filter>

    <filter id="lavaGlow" x="-40%" y="-40%" width="180%" height="180%">
      <feGaussianBlur stdDeviation="1.6" result="b"/>
      <feMerge>
        <feMergeNode in="b"/>
        <feMergeNode in="SourceGraphic"/>
      </feMerge>
    </filter>

    <filter id="smokeBlur" x="-40%" y="-40%" width="200%" height="200%">
      <feGaussianBlur stdDeviation="1.8" result="s"/>
      <feMerge>
        <feMergeNode in="s"/>
        <feMergeNode in="SourceGraphic"/>
      </feMerge>
    </filter>
  </defs>

  <!-- Outer circle background with subtle highlight arc -->
  <circle cx="32" cy="32" r="30" fill="url(#bgRad)" stroke="#07121a" stroke-width="0.9"/>
  <path d="M12 22 A20 20 0 0 1 52 22" fill="none" stroke="#0f2b37" stroke-width="1" opacity="0.15" stroke-linecap="round"/>

  <!-- Ground shadow -->
  <ellipse cx="32" cy="49" rx="13" ry="3.2" fill="#000" opacity="0.16" filter="url(#softShadow)"/>

  <!-- Volcano (centered and smoothed) -->
  <g transform="translate(0,2)">
    <!-- silhouette with smooth curves -->
    <path d="M17.6 44 C22.2 33.2 27.6 25.2 32 22 C36.4 25.2 41.8 33.2 46.4 44 L17.6 44 Z" fill="#24292d"/>

    <!-- inner face highlight for depth -->
    <path d="M21.2 41.6 C25 33.8 29 27.6 32 25.2 C35 27.6 38.8 33.8 42.6 41.6 L21.2 41.6 Z" fill="#313538" opacity="0.98"/>

    <!-- crater rim (smooth) -->
    <path d="M29.2 25.2 C30 27.8 31.4 28.6 33 25.6" fill="none" stroke="#ffdfb1" stroke-width="0.6" stroke-linecap="round" opacity="0.65"/>

    <!-- flowing lava blob (smooth, organic) -->
    <path d="M30 26.2 C31.2 30 33.6 31 34.6 28.2 C35.2 26.8 36.6 27.6 36.4 29 C35.8 33 34 35.6 32 37.8 C30 35.6 28.2 33 27.6 29 C27.4 27.6 28.6 26.4 30 26.2 Z"
          fill="url(#lava)" stroke="#ff924d" stroke-width="0.18" filter="url(#lavaGlow)"/>

    <!-- gentle drip to add motion -->
    <path d="M33.6 33.6 C34 35.2 33.6 36.2 33 37 C33.4 36.8 34 36.2 34.2 35.2 C34.4 34 33.8 33 33.6 33.6 Z" fill="#ffb874" opacity="0.98"/>

    <!-- smoke puffs with soft blur and staggered positions -->
    <g fill="#cbd5e1" opacity="0.62" filter="url(#smokeBlur)">
      <ellipse cx="30" cy="13.6" rx="3.6" ry="2.4"/>
      <ellipse cx="24.6" cy="15.8" rx="2.4" ry="1.6"/>
      <ellipse cx="36" cy="16.2" rx="2" ry="1.3"/>
    </g>
  </g>

</svg>
